<mxfile host="app.diagrams.net" modified="2023-09-14T11:41:01.689Z" agent="Mozilla/5.0 (X11; Ubuntu; Linux x86_64; rv:109.0) Gecko/20100101 Firefox/117.0" version="21.7.5" etag="nBJ1LaDK5KrPUyWbV4CH" type="github">
  <diagram name="Page-1" id="mXZyA43rVv1xC7Cj2o_9">
    <mxGraphModel>
      <root>
        <mxCell id="0" />
        <mxCell id="1" parent="0" />
      </root>
    </mxGraphModel>
  </diagram>
</mxfile>
